<svg width="118" height="23" viewBox="0 0 118 23" fill="none" xmlns="http://www.w3.org/2000/svg">
<path d="M7.38 13.74V0.74H8.9V13.74H7.38Z" fill="#00002D"/>
<path d="M12.273 3.74H13.353L13.573 5.8C13.573 5.72 13.6463 5.49333 13.793 5.12C13.953 4.73333 14.193 4.37333 14.513 4.04C14.833 3.70667 15.2463 3.54 15.753 3.54C16.0063 3.54 16.293 3.58667 16.613 3.68C16.933 3.76 17.1396 3.82 17.233 3.86L17.093 4.96C16.9996 4.92 16.7863 4.86 16.453 4.78C16.133 4.7 15.8463 4.66 15.593 4.66C15.2063 4.66 14.873 4.79333 14.593 5.06C14.3263 5.31333 14.1263 5.58667 13.993 5.88C13.8596 6.17333 13.773 6.39333 13.733 6.54V13.74H12.273V3.74Z" fill="#00002D"/>
<path d="M19.595 1.72C19.355 1.72 19.1617 1.64667 19.015 1.5C18.8417 1.32667 18.755 1.11333 18.755 0.86C18.755 0.606666 18.8417 0.393333 19.015 0.22C19.1617 0.0733332 19.355 0 19.595 0C19.8483 0 20.0483 0.0666666 20.195 0.2C20.355 0.373333 20.435 0.593333 20.435 0.86C20.435 1.1 20.355 1.31333 20.195 1.5C20.0083 1.64667 19.8083 1.72 19.595 1.72ZM18.855 13.74V3.74H20.315V13.74H18.855Z" fill="#00002D"/>
<path d="M23.3086 3.74H24.5086L24.6886 4.7C24.9019 4.44667 25.2353 4.19333 25.6886 3.94C26.1419 3.67333 26.7953 3.54 27.6486 3.54C28.6086 3.54 29.3553 3.81333 29.8886 4.36C30.4219 4.89333 30.6886 5.69333 30.6886 6.76V13.74H29.2286V7.06C29.2286 6.20667 29.0553 5.58667 28.7086 5.2C28.3619 4.8 27.8486 4.6 27.1686 4.6C26.6886 4.6 26.2686 4.67333 25.9086 4.82C25.5486 4.96667 25.2619 5.12667 25.0486 5.3C24.8486 5.47333 24.7486 5.57333 24.7486 5.6V13.74H23.3086V3.74Z" fill="#00002D"/>
<path d="M35.603 13.94C34.723 13.94 34.0163 13.7267 33.483 13.3C32.9496 12.86 32.683 12.2533 32.683 11.48C32.683 9.52 34.5696 8.34 38.343 7.94V6.88C38.343 5.93333 38.1896 5.28667 37.883 4.94C37.5763 4.59333 37.0363 4.42 36.263 4.42C35.9163 4.42 35.563 4.48667 35.203 4.62C34.843 4.74 34.5363 4.87333 34.283 5.02C34.043 5.15333 33.8896 5.24 33.823 5.28L33.663 4.46C33.7296 4.40667 33.8963 4.30667 34.163 4.16C34.443 4.01333 34.7896 3.87333 35.203 3.74C35.6296 3.60667 36.0563 3.54 36.483 3.54C37.6296 3.54 38.4696 3.78 39.003 4.26C39.5363 4.74 39.803 5.58667 39.803 6.8V11.7C39.803 12.2333 39.8496 12.5933 39.943 12.78C40.0496 12.9667 40.1763 13.06 40.323 13.06C40.443 13.06 40.5896 13.04 40.763 13C40.9363 12.9467 41.0496 12.9067 41.103 12.88L41.163 13.56C41.0563 13.6 40.8296 13.6733 40.483 13.78C40.1363 13.8867 39.843 13.94 39.603 13.94C39.2563 13.94 38.9896 13.8333 38.803 13.62C38.6163 13.3933 38.503 13 38.463 12.44H38.443C38.443 12.4933 38.3363 12.6467 38.123 12.9C37.9096 13.1533 37.5896 13.3933 37.163 13.62C36.7496 13.8333 36.2296 13.94 35.603 13.94ZM36.043 13.06C36.523 13.06 36.9363 12.9533 37.283 12.74C37.6296 12.5267 37.8896 12.2933 38.063 12.04C38.2496 11.7867 38.343 11.64 38.343 11.6V8.68C37.1296 8.81333 36.1296 9.07333 35.343 9.46C34.5696 9.84667 34.183 10.46 34.183 11.3C34.183 11.8733 34.3496 12.3133 34.683 12.62C35.0163 12.9133 35.4696 13.06 36.043 13.06Z" fill="#00002D"/>
<path d="M50.9622 13.94C50.0955 13.94 49.3755 13.8133 48.8022 13.56C48.2289 13.3067 47.8022 13.04 47.5222 12.76C47.2555 12.4667 47.1222 12.2933 47.1222 12.24L47.6222 11.46C47.6222 11.5 47.7489 11.6533 48.0022 11.92C48.2555 12.1733 48.6222 12.4133 49.1022 12.64C49.5955 12.8533 50.1955 12.96 50.9022 12.96C51.7422 12.96 52.4022 12.72 52.8822 12.24C53.3622 11.7467 53.6022 11.14 53.6022 10.42C53.6022 9.92667 53.4822 9.51333 53.2422 9.18C53.0022 8.84667 52.7022 8.58 52.3422 8.38C51.9955 8.18 51.5222 7.95333 50.9222 7.7C50.2289 7.42 49.6689 7.15333 49.2422 6.9C48.8155 6.64667 48.4555 6.3 48.1622 5.86C47.8689 5.40667 47.7222 4.83333 47.7222 4.14C47.7222 3.04667 48.0689 2.18 48.7622 1.54C49.4555 0.886667 50.3822 0.56 51.5422 0.56C52.1155 0.56 52.6289 0.646667 53.0822 0.82C53.5489 0.98 53.9222 1.16 54.2022 1.36C54.4822 1.54667 54.6222 1.65333 54.6222 1.68L54.4222 2.56C54.4222 2.53333 54.2889 2.42667 54.0222 2.24C53.7555 2.05333 53.4155 1.88 53.0022 1.72C52.5889 1.56 52.1289 1.48 51.6222 1.48C50.8755 1.48 50.2889 1.68667 49.8622 2.1C49.4355 2.51333 49.2222 3.07333 49.2222 3.78C49.2222 4.27333 49.3355 4.68667 49.5622 5.02C49.8022 5.34 50.0955 5.6 50.4422 5.8C50.8022 6 51.2755 6.22 51.8622 6.46C52.5689 6.75333 53.1355 7.03333 53.5622 7.3C53.9889 7.55333 54.3489 7.91333 54.6422 8.38C54.9489 8.84667 55.1022 9.44667 55.1022 10.18C55.1022 10.9133 54.9289 11.5667 54.5822 12.14C54.2489 12.7 53.7689 13.14 53.1422 13.46C52.5155 13.78 51.7889 13.94 50.9622 13.94Z" fill="#00002D"/>
<path d="M57.5469 3.74H58.7469L58.9269 4.94C59.1135 4.64667 59.4335 4.34 59.8869 4.02C60.3402 3.7 60.9669 3.54 61.7669 3.54C62.9402 3.54 63.8735 3.97333 64.5669 4.84C65.2735 5.70667 65.6269 6.91333 65.6269 8.46C65.6269 10.14 65.2735 11.4733 64.5669 12.46C63.8602 13.4467 62.8602 13.94 61.5669 13.94C61.0202 13.94 60.5535 13.8733 60.1669 13.74C59.7935 13.5933 59.5069 13.44 59.3069 13.28C59.1069 13.1067 59.0069 13.0067 59.0069 12.98H58.9869V18.74L57.5469 18.78V3.74ZM61.0869 12.98C62.1269 12.98 62.8869 12.6133 63.3669 11.88C63.8469 11.1333 64.0869 10.0067 64.0869 8.5C64.0869 7.1 63.8469 6.08667 63.3669 5.46C62.8869 4.83333 62.1935 4.52 61.2869 4.52C60.8069 4.52 60.3935 4.62 60.0469 4.82C59.7002 5.02 59.4335 5.24 59.2469 5.48C59.0735 5.70667 58.9869 5.84 58.9869 5.88V12.1C59.1335 12.2867 59.3735 12.48 59.7069 12.68C60.0535 12.88 60.5135 12.98 61.0869 12.98Z" fill="#00002D"/>
<path d="M69.9194 13.94C69.0394 13.94 68.3327 13.7267 67.7994 13.3C67.266 12.86 66.9994 12.2533 66.9994 11.48C66.9994 9.52 68.886 8.34 72.6594 7.94V6.88C72.6594 5.93333 72.506 5.28667 72.1994 4.94C71.8927 4.59333 71.3527 4.42 70.5794 4.42C70.2327 4.42 69.8794 4.48667 69.5194 4.62C69.1594 4.74 68.8527 4.87333 68.5994 5.02C68.3594 5.15333 68.206 5.24 68.1394 5.28L67.9794 4.46C68.046 4.40667 68.2127 4.30667 68.4794 4.16C68.7594 4.01333 69.106 3.87333 69.5194 3.74C69.946 3.60667 70.3727 3.54 70.7994 3.54C71.946 3.54 72.786 3.78 73.3194 4.26C73.8527 4.74 74.1194 5.58667 74.1194 6.8V11.7C74.1194 12.2333 74.166 12.5933 74.2594 12.78C74.366 12.9667 74.4927 13.06 74.6394 13.06C74.7594 13.06 74.906 13.04 75.0794 13C75.2527 12.9467 75.366 12.9067 75.4194 12.88L75.4794 13.56C75.3727 13.6 75.146 13.6733 74.7994 13.78C74.4527 13.8867 74.1594 13.94 73.9194 13.94C73.5727 13.94 73.306 13.8333 73.1194 13.62C72.9327 13.3933 72.8194 13 72.7794 12.44H72.7594C72.7594 12.4933 72.6527 12.6467 72.4394 12.9C72.226 13.1533 71.906 13.3933 71.4794 13.62C71.066 13.8333 70.546 13.94 69.9194 13.94ZM70.3594 13.06C70.8394 13.06 71.2527 12.9533 71.5994 12.74C71.946 12.5267 72.206 12.2933 72.3794 12.04C72.566 11.7867 72.6594 11.64 72.6594 11.6V8.68C71.446 8.81333 70.446 9.07333 69.6594 9.46C68.886 9.84667 68.4994 10.46 68.4994 11.3C68.4994 11.8733 68.666 12.3133 68.9994 12.62C69.3327 12.9133 69.786 13.06 70.3594 13.06Z" fill="#00002D"/>
<path d="M79.8706 13.94C79.164 13.94 78.564 13.8333 78.0706 13.62C77.5906 13.3933 77.224 13.1533 76.9706 12.9C76.7306 12.6467 76.6106 12.5 76.6106 12.46L77.1106 11.76C77.1106 11.7867 77.2173 11.9133 77.4306 12.14C77.644 12.3667 77.9373 12.58 78.3106 12.78C78.684 12.9667 79.124 13.06 79.6306 13.06C80.3773 13.06 80.9373 12.8733 81.3106 12.5C81.6973 12.1267 81.8906 11.6733 81.8906 11.14C81.8906 10.7533 81.7906 10.4333 81.5906 10.18C81.404 9.92667 81.164 9.73333 80.8706 9.6C80.5906 9.45333 80.1973 9.29333 79.6906 9.12C79.104 8.90667 78.6373 8.71333 78.2906 8.54C77.944 8.35333 77.644 8.08 77.3906 7.72C77.1506 7.36 77.0306 6.89333 77.0306 6.32C77.0306 5.46667 77.3373 4.79333 77.9506 4.3C78.5773 3.79333 79.3773 3.54 80.3506 3.54C80.7773 3.54 81.184 3.6 81.5706 3.72C81.9706 3.82667 82.2906 3.94667 82.5306 4.08C82.7706 4.2 82.924 4.28 82.9906 4.32L82.7506 5.18C82.6973 5.14 82.564 5.06 82.3506 4.94C82.1373 4.80667 81.8573 4.68 81.5106 4.56C81.1773 4.44 80.8306 4.38 80.4706 4.38C79.8573 4.38 79.3573 4.53333 78.9706 4.84C78.5973 5.14667 78.4106 5.53333 78.4106 6C78.4106 6.38667 78.5106 6.71333 78.7106 6.98C78.9106 7.23333 79.1573 7.43333 79.4506 7.58C79.7573 7.72667 80.164 7.89333 80.6706 8.08C81.2573 8.28 81.7306 8.48 82.0906 8.68C82.464 8.86667 82.7773 9.14 83.0306 9.5C83.284 9.86 83.4106 10.3267 83.4106 10.9C83.4106 11.7667 83.1106 12.4933 82.5106 13.08C81.9106 13.6533 81.0306 13.94 79.8706 13.94Z" fill="#00002D"/>
<path d="M89.0547 13.94C87.668 13.94 86.608 13.4867 85.8747 12.58C85.1547 11.6733 84.7947 10.3933 84.7947 8.74C84.7947 7.08667 85.1547 5.80667 85.8747 4.9C86.608 3.99333 87.668 3.54 89.0547 3.54C90.4414 3.54 91.4947 3.99333 92.2147 4.9C92.948 5.80667 93.3147 7.08667 93.3147 8.74C93.3147 10.38 92.9414 11.66 92.1947 12.58C91.4614 13.4867 90.4147 13.94 89.0547 13.94ZM89.0547 13.06C89.988 13.06 90.6747 12.7067 91.1147 12C91.5547 11.28 91.7747 10.1933 91.7747 8.74C91.7747 7.3 91.5547 6.22 91.1147 5.5C90.6747 4.78 89.988 4.42 89.0547 4.42C88.1214 4.42 87.4347 4.78 86.9947 5.5C86.5547 6.20667 86.3347 7.28667 86.3347 8.74C86.3347 10.1933 86.5547 11.28 86.9947 12C87.4347 12.7067 88.1214 13.06 89.0547 13.06Z" fill="#00002D"/>
<path d="M97.7542 13.74L94.3342 3.74H96.0542L98.6542 12.16L101.414 3.74H102.514L99.0742 13.74H97.7542Z" fill="#00002D"/>
<path d="M106.326 13.94C105.446 13.94 104.739 13.7267 104.206 13.3C103.672 12.86 103.406 12.2533 103.406 11.48C103.406 9.52 105.292 8.34 109.066 7.94V6.88C109.066 5.93333 108.912 5.28667 108.606 4.94C108.299 4.59333 107.759 4.42 106.986 4.42C106.639 4.42 106.286 4.48667 105.926 4.62C105.566 4.74 105.259 4.87333 105.006 5.02C104.766 5.15333 104.612 5.24 104.546 5.28L104.386 4.46C104.452 4.40667 104.619 4.30667 104.886 4.16C105.166 4.01333 105.512 3.87333 105.926 3.74C106.352 3.60667 106.779 3.54 107.206 3.54C108.352 3.54 109.192 3.78 109.726 4.26C110.259 4.74 110.526 5.58667 110.526 6.8V11.7C110.526 12.2333 110.572 12.5933 110.666 12.78C110.772 12.9667 110.899 13.06 111.046 13.06C111.166 13.06 111.312 13.04 111.486 13C111.659 12.9467 111.772 12.9067 111.826 12.88L111.886 13.56C111.779 13.6 111.552 13.6733 111.206 13.78C110.859 13.8867 110.566 13.94 110.326 13.94C109.979 13.94 109.712 13.8333 109.526 13.62C109.339 13.3933 109.226 13 109.186 12.44H109.166C109.166 12.4933 109.059 12.6467 108.846 12.9C108.632 13.1533 108.312 13.3933 107.886 13.62C107.472 13.8333 106.952 13.94 106.326 13.94ZM106.766 13.06C107.246 13.06 107.659 12.9533 108.006 12.74C108.352 12.5267 108.612 12.2933 108.786 12.04C108.972 11.7867 109.066 11.64 109.066 11.6V8.68C107.852 8.81333 106.852 9.07333 106.066 9.46C105.292 9.84667 104.906 10.46 104.906 11.3C104.906 11.8733 105.072 12.3133 105.406 12.62C105.739 12.9133 106.192 13.06 106.766 13.06Z" fill="#00002D"/>
<path d="M1 22.24L117 22.24" stroke="#8B0000" stroke-linecap="round"/>
</svg>
